<svg xmlns="http://www.w3.org/2000/svg" xmlns:xlink="http://www.w3.org/1999/xlink" width="603" height="209" viewBox="0 0 603 209" fill="none">
<g clip-path="url(#clip0_1977_2)">
<rect width="603" height="1092" fill="url(#pattern0_1977_2)"/>
<path d="M25 160C25 141.775 39.7746 127 58 127H545C563.225 127 578 141.775 578 160V165C578 183.225 563.225 198 545 198H58C39.7746 198 25 183.225 25 165V160Z" fill="#F1F0EF"/>
<path d="M30 160C30 143.984 42.9837 131 59 131H275C291.016 131 304 143.984 304 160V165C304 181.016 291.016 194 275 194H59C42.9837 194 30 181.016 30 165V160Z" fill="#FC8F0C"/>
<path d="M105.749 180.189C104.957 180.189 104.244 180.031 103.61 179.717C102.975 179.402 102.467 178.97 102.085 178.421C101.703 177.872 101.493 177.247 101.457 176.545H103.077C103.14 177.171 103.423 177.688 103.927 178.097C104.435 178.502 105.042 178.705 105.749 178.705C106.315 178.705 106.819 178.572 107.26 178.306C107.705 178.041 108.054 177.677 108.306 177.213C108.562 176.746 108.69 176.217 108.69 175.628C108.69 175.025 108.558 174.488 108.292 174.015C108.031 173.538 107.672 173.163 107.213 172.888C106.754 172.614 106.23 172.475 105.641 172.47C105.218 172.466 104.784 172.531 104.338 172.666C103.893 172.796 103.527 172.965 103.239 173.172L101.673 172.983L102.51 166.182H109.689V167.666H103.913L103.428 171.741H103.509C103.792 171.517 104.147 171.33 104.575 171.181C105.002 171.033 105.447 170.959 105.911 170.959C106.756 170.959 107.51 171.161 108.171 171.566C108.837 171.966 109.358 172.515 109.736 173.212C110.118 173.91 110.31 174.706 110.31 175.601C110.31 176.482 110.112 177.27 109.716 177.962C109.325 178.651 108.785 179.195 108.097 179.595C107.408 179.991 106.626 180.189 105.749 180.189ZM122.841 180.189C121.824 180.189 120.958 179.912 120.243 179.359C119.528 178.801 118.981 177.994 118.604 176.937C118.226 175.875 118.037 174.593 118.037 173.091C118.037 171.598 118.226 170.322 118.604 169.265C118.986 168.204 119.535 167.394 120.25 166.836C120.97 166.274 121.833 165.993 122.841 165.993C123.848 165.993 124.71 166.274 125.425 166.836C126.145 167.394 126.693 168.204 127.071 169.265C127.454 170.322 127.645 171.598 127.645 173.091C127.645 174.593 127.456 175.875 127.078 176.937C126.7 177.994 126.154 178.801 125.438 179.359C124.723 179.912 123.857 180.189 122.841 180.189ZM122.841 178.705C123.848 178.705 124.631 178.219 125.189 177.247C125.747 176.276 126.025 174.89 126.025 173.091C126.025 171.894 125.897 170.876 125.641 170.034C125.389 169.193 125.025 168.552 124.548 168.112C124.076 167.671 123.507 167.45 122.841 167.45C121.842 167.45 121.062 167.943 120.5 168.928C119.937 169.908 119.656 171.296 119.656 173.091C119.656 174.287 119.782 175.304 120.034 176.141C120.286 176.977 120.648 177.614 121.12 178.05C121.597 178.486 122.171 178.705 122.841 178.705ZM134.716 180.189C133.699 180.189 132.833 179.912 132.118 179.359C131.403 178.801 130.856 177.994 130.479 176.937C130.101 175.875 129.912 174.593 129.912 173.091C129.912 171.598 130.101 170.322 130.479 169.265C130.861 168.204 131.41 167.394 132.125 166.836C132.845 166.274 133.708 165.993 134.716 165.993C135.723 165.993 136.585 166.274 137.3 166.836C138.02 167.394 138.568 168.204 138.946 169.265C139.329 170.322 139.52 171.598 139.52 173.091C139.52 174.593 139.331 175.875 138.953 176.937C138.575 177.994 138.029 178.801 137.313 179.359C136.598 179.912 135.732 180.189 134.716 180.189ZM134.716 178.705C135.723 178.705 136.506 178.219 137.064 177.247C137.622 176.276 137.9 174.89 137.9 173.091C137.9 171.894 137.772 170.876 137.516 170.034C137.264 169.193 136.9 168.552 136.423 168.112C135.951 167.671 135.382 167.45 134.716 167.45C133.717 167.45 132.937 167.943 132.375 168.928C131.812 169.908 131.531 171.296 131.531 173.091C131.531 174.287 131.657 175.304 131.909 176.141C132.161 176.977 132.523 177.614 132.995 178.05C133.472 178.486 134.046 178.705 134.716 178.705ZM146.591 180.189C145.574 180.189 144.708 179.912 143.993 179.359C143.278 178.801 142.731 177.994 142.354 176.937C141.976 175.875 141.787 174.593 141.787 173.091C141.787 171.598 141.976 170.322 142.354 169.265C142.736 168.204 143.285 167.394 144 166.836C144.72 166.274 145.583 165.993 146.591 165.993C147.598 165.993 148.46 166.274 149.175 166.836C149.895 167.394 150.443 168.204 150.821 169.265C151.204 170.322 151.395 171.598 151.395 173.091C151.395 174.593 151.206 175.875 150.828 176.937C150.45 177.994 149.904 178.801 149.188 179.359C148.473 179.912 147.607 180.189 146.591 180.189ZM146.591 178.705C147.598 178.705 148.381 178.219 148.939 177.247C149.497 176.276 149.775 174.89 149.775 173.091C149.775 171.894 149.647 170.876 149.391 170.034C149.139 169.193 148.775 168.552 148.298 168.112C147.826 167.671 147.257 167.45 146.591 167.45C145.592 167.45 144.812 167.943 144.25 168.928C143.687 169.908 143.406 171.296 143.406 173.091C143.406 174.287 143.532 175.304 143.784 176.141C144.036 176.977 144.398 177.614 144.87 178.05C145.347 178.486 145.921 178.705 146.591 178.705ZM158.736 171.121V169.636H167.156V171.121H163.756V180H162.163V171.121H158.736ZM173.151 180.216C172.215 180.216 171.395 179.993 170.688 179.548C169.987 179.103 169.438 178.48 169.042 177.679C168.651 176.878 168.455 175.943 168.455 174.872C168.455 173.793 168.651 172.85 169.042 172.045C169.438 171.24 169.987 170.615 170.688 170.169C171.395 169.724 172.215 169.501 173.151 169.501C174.087 169.501 174.905 169.724 175.607 170.169C176.313 170.615 176.862 171.24 177.253 172.045C177.649 172.85 177.847 173.793 177.847 174.872C177.847 175.943 177.649 176.878 177.253 177.679C176.862 178.48 176.313 179.103 175.607 179.548C174.905 179.993 174.087 180.216 173.151 180.216ZM173.151 178.786C173.862 178.786 174.446 178.603 174.905 178.239C175.364 177.875 175.704 177.396 175.924 176.802C176.145 176.208 176.255 175.565 176.255 174.872C176.255 174.179 176.145 173.534 175.924 172.936C175.704 172.337 175.364 171.854 174.905 171.485C174.446 171.116 173.862 170.932 173.151 170.932C172.44 170.932 171.856 171.116 171.397 171.485C170.938 171.854 170.598 172.337 170.378 172.936C170.158 173.534 170.047 174.179 170.047 174.872C170.047 175.565 170.158 176.208 170.378 176.802C170.598 177.396 170.938 177.875 171.397 178.239C171.856 178.603 172.44 178.786 173.151 178.786ZM180.278 180V169.636H184.515C185.63 169.636 186.517 169.888 187.173 170.392C187.83 170.896 188.158 171.562 188.158 172.389C188.158 173.019 187.972 173.507 187.598 173.853C187.225 174.195 186.746 174.427 186.161 174.548C186.544 174.602 186.915 174.737 187.275 174.953C187.639 175.169 187.94 175.466 188.179 175.844C188.417 176.217 188.536 176.676 188.536 177.22C188.536 177.751 188.401 178.225 188.131 178.644C187.862 179.062 187.475 179.393 186.971 179.636C186.467 179.879 185.864 180 185.163 180H180.278ZM181.789 178.543H185.163C185.711 178.543 186.141 178.412 186.451 178.151C186.762 177.89 186.917 177.535 186.917 177.085C186.917 176.55 186.762 176.129 186.451 175.824C186.141 175.513 185.711 175.358 185.163 175.358H181.789V178.543ZM181.789 173.982H184.515C184.942 173.982 185.309 173.923 185.615 173.806C185.921 173.685 186.154 173.514 186.316 173.293C186.483 173.068 186.566 172.803 186.566 172.497C186.566 172.061 186.384 171.719 186.02 171.472C185.655 171.22 185.154 171.094 184.515 171.094H181.789V173.982ZM193.996 180.243C193.34 180.243 192.744 180.119 192.208 179.872C191.673 179.62 191.248 179.258 190.933 178.786C190.618 178.309 190.461 177.733 190.461 177.058C190.461 176.464 190.578 175.983 190.812 175.614C191.046 175.241 191.358 174.949 191.75 174.737C192.141 174.526 192.573 174.368 193.045 174.265C193.522 174.157 194.001 174.071 194.482 174.009C195.112 173.928 195.622 173.867 196.014 173.826C196.41 173.781 196.697 173.707 196.877 173.604C197.062 173.5 197.154 173.32 197.154 173.064V173.01C197.154 172.344 196.972 171.827 196.608 171.458C196.248 171.089 195.701 170.905 194.968 170.905C194.208 170.905 193.612 171.071 193.18 171.404C192.748 171.737 192.445 172.092 192.269 172.47L190.758 171.93C191.028 171.301 191.387 170.81 191.837 170.46C192.292 170.104 192.786 169.857 193.322 169.717C193.861 169.573 194.392 169.501 194.914 169.501C195.247 169.501 195.629 169.542 196.061 169.623C196.497 169.699 196.918 169.859 197.323 170.102C197.732 170.345 198.072 170.711 198.342 171.202C198.611 171.692 198.746 172.349 198.746 173.172V180H197.154V178.597H197.073C196.965 178.821 196.785 179.062 196.533 179.319C196.281 179.575 195.946 179.793 195.528 179.973C195.11 180.153 194.599 180.243 193.996 180.243ZM194.239 178.812C194.869 178.812 195.4 178.689 195.832 178.441C196.268 178.194 196.596 177.875 196.817 177.483C197.042 177.092 197.154 176.68 197.154 176.249V174.791C197.087 174.872 196.938 174.946 196.709 175.014C196.484 175.077 196.223 175.133 195.926 175.183C195.634 175.228 195.348 175.268 195.069 175.304C194.795 175.335 194.572 175.362 194.401 175.385C193.987 175.439 193.601 175.527 193.241 175.648C192.885 175.765 192.597 175.943 192.377 176.181C192.161 176.415 192.053 176.734 192.053 177.139C192.053 177.692 192.258 178.111 192.667 178.394C193.081 178.673 193.605 178.812 194.239 178.812ZM201.653 183.886V169.636H203.191V171.283H203.38C203.497 171.103 203.659 170.873 203.866 170.594C204.077 170.311 204.379 170.059 204.77 169.839C205.166 169.614 205.701 169.501 206.376 169.501C207.248 169.501 208.018 169.72 208.683 170.156C209.349 170.592 209.868 171.211 210.242 172.011C210.615 172.812 210.802 173.757 210.802 174.845C210.802 175.943 210.615 176.894 210.242 177.699C209.868 178.5 209.351 179.121 208.69 179.561C208.029 179.998 207.266 180.216 206.403 180.216C205.737 180.216 205.204 180.106 204.804 179.885C204.403 179.66 204.095 179.406 203.879 179.123C203.663 178.835 203.497 178.597 203.38 178.408H203.245V183.886H201.653ZM203.218 174.818C203.218 175.601 203.333 176.291 203.562 176.89C203.792 177.483 204.127 177.949 204.567 178.286C205.008 178.619 205.548 178.786 206.187 178.786C206.853 178.786 207.408 178.61 207.853 178.259C208.303 177.904 208.641 177.427 208.865 176.829C209.095 176.226 209.21 175.556 209.21 174.818C209.21 174.089 209.097 173.433 208.872 172.848C208.652 172.259 208.317 171.793 207.867 171.451C207.422 171.105 206.862 170.932 206.187 170.932C205.539 170.932 204.995 171.096 204.554 171.424C204.113 171.748 203.78 172.203 203.555 172.787C203.33 173.368 203.218 174.045 203.218 174.818ZM217.441 180.216C216.505 180.216 215.685 179.993 214.978 179.548C214.277 179.103 213.728 178.48 213.332 177.679C212.941 176.878 212.745 175.943 212.745 174.872C212.745 173.793 212.941 172.85 213.332 172.045C213.728 171.24 214.277 170.615 214.978 170.169C215.685 169.724 216.505 169.501 217.441 169.501C218.377 169.501 219.195 169.724 219.897 170.169C220.603 170.615 221.152 171.24 221.543 172.045C221.939 172.85 222.137 173.793 222.137 174.872C222.137 175.943 221.939 176.878 221.543 177.679C221.152 178.48 220.603 179.103 219.897 179.548C219.195 179.993 218.377 180.216 217.441 180.216ZM217.441 178.786C218.152 178.786 218.737 178.603 219.195 178.239C219.654 177.875 219.994 177.396 220.214 176.802C220.435 176.208 220.545 175.565 220.545 174.872C220.545 174.179 220.435 173.534 220.214 172.936C219.994 172.337 219.654 171.854 219.195 171.485C218.737 171.116 218.152 170.932 217.441 170.932C216.73 170.932 216.146 171.116 215.687 171.485C215.228 171.854 214.888 172.337 214.668 172.936C214.448 173.534 214.337 174.179 214.337 174.872C214.337 175.565 214.448 176.208 214.668 176.802C214.888 177.396 215.228 177.875 215.687 178.239C216.146 178.603 216.73 178.786 217.441 178.786ZM224.568 180V169.636H228.805C229.92 169.636 230.807 169.888 231.463 170.392C232.12 170.896 232.448 171.562 232.448 172.389C232.448 173.019 232.262 173.507 231.888 173.853C231.515 174.195 231.036 174.427 230.451 174.548C230.834 174.602 231.205 174.737 231.565 174.953C231.929 175.169 232.23 175.466 232.469 175.844C232.707 176.217 232.826 176.676 232.826 177.22C232.826 177.751 232.691 178.225 232.421 178.644C232.152 179.062 231.765 179.393 231.261 179.636C230.757 179.879 230.154 180 229.453 180H224.568ZM226.079 178.543H229.453C230.001 178.543 230.431 178.412 230.741 178.151C231.052 177.89 231.207 177.535 231.207 177.085C231.207 176.55 231.052 176.129 230.741 175.824C230.431 175.513 230.001 175.358 229.453 175.358H226.079V178.543ZM226.079 173.982H228.805C229.232 173.982 229.599 173.923 229.905 173.806C230.211 173.685 230.445 173.514 230.606 173.293C230.773 173.068 230.856 172.803 230.856 172.497C230.856 172.061 230.674 171.719 230.31 171.472C229.945 171.22 229.444 171.094 228.805 171.094H226.079V173.982Z" fill="white"/>
<path d="M143.578 158V142H153.984V144.43H146.477V148.773H153.445V151.203H146.477V155.57H154.047V158H143.578ZM155.754 161.484V155.672H156.707C156.962 155.474 157.176 155.206 157.348 154.867C157.52 154.523 157.66 154.12 157.77 153.656C157.884 153.187 157.978 152.664 158.051 152.086C158.124 151.503 158.189 150.875 158.246 150.203L158.59 146H167.262V155.672H169.121V161.484H166.387V158H158.535V161.484H155.754ZM159.613 155.672H164.559V148.281H161.043L160.855 150.203C160.751 151.474 160.613 152.562 160.441 153.469C160.27 154.375 159.993 155.109 159.613 155.672ZM174.686 158.242C173.925 158.242 173.24 158.107 172.631 157.836C172.027 157.56 171.548 157.154 171.193 156.617C170.844 156.081 170.67 155.419 170.67 154.633C170.67 153.956 170.795 153.396 171.045 152.953C171.295 152.51 171.636 152.156 172.068 151.891C172.501 151.625 172.988 151.424 173.529 151.289C174.076 151.148 174.641 151.047 175.225 150.984C175.928 150.911 176.498 150.846 176.936 150.789C177.373 150.727 177.691 150.633 177.889 150.508C178.092 150.378 178.193 150.177 178.193 149.906V149.859C178.193 149.271 178.019 148.815 177.67 148.492C177.321 148.169 176.818 148.008 176.162 148.008C175.469 148.008 174.92 148.159 174.514 148.461C174.113 148.763 173.842 149.12 173.701 149.531L171.061 149.156C171.269 148.427 171.613 147.818 172.092 147.328C172.571 146.833 173.157 146.464 173.85 146.219C174.542 145.969 175.308 145.844 176.146 145.844C176.725 145.844 177.3 145.911 177.873 146.047C178.446 146.182 178.969 146.406 179.443 146.719C179.917 147.026 180.298 147.445 180.584 147.977C180.876 148.508 181.021 149.172 181.021 149.969V158H178.303V156.352H178.209C178.037 156.685 177.795 156.997 177.482 157.289C177.175 157.576 176.787 157.807 176.318 157.984C175.855 158.156 175.311 158.242 174.686 158.242ZM175.42 156.164C175.988 156.164 176.48 156.052 176.896 155.828C177.313 155.599 177.633 155.297 177.857 154.922C178.087 154.547 178.201 154.138 178.201 153.695V152.281C178.113 152.354 177.962 152.422 177.748 152.484C177.54 152.547 177.305 152.602 177.045 152.648C176.785 152.695 176.527 152.737 176.271 152.773C176.016 152.81 175.795 152.841 175.607 152.867C175.186 152.924 174.808 153.018 174.475 153.148C174.141 153.279 173.878 153.461 173.686 153.695C173.493 153.924 173.396 154.221 173.396 154.586C173.396 155.107 173.587 155.5 173.967 155.766C174.347 156.031 174.831 156.164 175.42 156.164Z" fill="white"/>
<path d="M373.288 168.182V182H371.615V169.936H371.534L368.161 172.176V170.476L371.615 168.182H373.288ZM381.77 182.189C380.753 182.189 379.887 181.912 379.172 181.359C378.457 180.801 377.91 179.994 377.532 178.937C377.154 177.875 376.966 176.593 376.966 175.091C376.966 173.598 377.154 172.322 377.532 171.265C377.915 170.204 378.463 169.394 379.179 168.836C379.898 168.274 380.762 167.993 381.77 167.993C382.777 167.993 383.638 168.274 384.354 168.836C385.073 169.394 385.622 170.204 386 171.265C386.382 172.322 386.574 173.598 386.574 175.091C386.574 176.593 386.385 177.875 386.007 178.937C385.629 179.994 385.082 180.801 384.367 181.359C383.652 181.912 382.786 182.189 381.77 182.189ZM381.77 180.705C382.777 180.705 383.56 180.219 384.118 179.247C384.675 178.276 384.954 176.89 384.954 175.091C384.954 173.894 384.826 172.876 384.57 172.034C384.318 171.193 383.953 170.552 383.477 170.112C383.004 169.671 382.435 169.45 381.77 169.45C380.771 169.45 379.991 169.943 379.428 170.928C378.866 171.908 378.585 173.296 378.585 175.091C378.585 176.287 378.711 177.304 378.963 178.141C379.215 178.977 379.577 179.614 380.049 180.05C380.526 180.486 381.099 180.705 381.77 180.705ZM398.988 182.189C397.972 182.189 397.106 181.912 396.391 181.359C395.675 180.801 395.129 179.994 394.751 178.937C394.373 177.875 394.184 176.593 394.184 175.091C394.184 173.598 394.373 172.322 394.751 171.265C395.133 170.204 395.682 169.394 396.397 168.836C397.117 168.274 397.981 167.993 398.988 167.993C399.996 167.993 400.857 168.274 401.572 168.836C402.292 169.394 402.841 170.204 403.219 171.265C403.601 172.322 403.792 173.598 403.792 175.091C403.792 176.593 403.603 177.875 403.225 178.937C402.848 179.994 402.301 180.801 401.586 181.359C400.871 181.912 400.005 182.189 398.988 182.189ZM398.988 180.705C399.996 180.705 400.779 180.219 401.336 179.247C401.894 178.276 402.173 176.89 402.173 175.091C402.173 173.894 402.045 172.876 401.788 172.034C401.536 171.193 401.172 170.552 400.695 170.112C400.223 169.671 399.654 169.45 398.988 169.45C397.99 169.45 397.209 169.943 396.647 170.928C396.085 171.908 395.804 173.296 395.804 175.091C395.804 176.287 395.93 177.304 396.181 178.141C396.433 178.977 396.795 179.614 397.268 180.05C397.745 180.486 398.318 180.705 398.988 180.705ZM410.863 182.189C409.847 182.189 408.981 181.912 408.266 181.359C407.55 180.801 407.004 179.994 406.626 178.937C406.248 177.875 406.059 176.593 406.059 175.091C406.059 173.598 406.248 172.322 406.626 171.265C407.008 170.204 407.557 169.394 408.272 168.836C408.992 168.274 409.856 167.993 410.863 167.993C411.871 167.993 412.732 168.274 413.447 168.836C414.167 169.394 414.716 170.204 415.094 171.265C415.476 172.322 415.667 173.598 415.667 175.091C415.667 176.593 415.478 177.875 415.1 178.937C414.723 179.994 414.176 180.801 413.461 181.359C412.746 181.912 411.88 182.189 410.863 182.189ZM410.863 180.705C411.871 180.705 412.654 180.219 413.211 179.247C413.769 178.276 414.048 176.89 414.048 175.091C414.048 173.894 413.92 172.876 413.663 172.034C413.411 171.193 413.047 170.552 412.57 170.112C412.098 169.671 411.529 169.45 410.863 169.45C409.865 169.45 409.084 169.943 408.522 170.928C407.96 171.908 407.679 173.296 407.679 175.091C407.679 176.287 407.805 177.304 408.056 178.141C408.308 178.977 408.67 179.614 409.143 180.05C409.62 180.486 410.193 180.705 410.863 180.705ZM422.738 182.189C421.722 182.189 420.856 181.912 420.141 181.359C419.425 180.801 418.879 179.994 418.501 178.937C418.123 177.875 417.934 176.593 417.934 175.091C417.934 173.598 418.123 172.322 418.501 171.265C418.883 170.204 419.432 169.394 420.147 168.836C420.867 168.274 421.731 167.993 422.738 167.993C423.746 167.993 424.607 168.274 425.322 168.836C426.042 169.394 426.591 170.204 426.969 171.265C427.351 172.322 427.542 173.598 427.542 175.091C427.542 176.593 427.353 177.875 426.975 178.937C426.598 179.994 426.051 180.801 425.336 181.359C424.621 181.912 423.755 182.189 422.738 182.189ZM422.738 180.705C423.746 180.705 424.529 180.219 425.086 179.247C425.644 178.276 425.923 176.89 425.923 175.091C425.923 173.894 425.795 172.876 425.538 172.034C425.286 171.193 424.922 170.552 424.445 170.112C423.973 169.671 423.404 169.45 422.738 169.45C421.74 169.45 420.959 169.943 420.397 170.928C419.835 171.908 419.554 173.296 419.554 175.091C419.554 176.287 419.68 177.304 419.931 178.141C420.183 178.977 420.545 179.614 421.018 180.05C421.495 180.486 422.068 180.705 422.738 180.705ZM434.883 173.121V171.636H443.304V173.121H439.903V182H438.311V173.121H434.883ZM449.298 182.216C448.363 182.216 447.542 181.993 446.836 181.548C446.134 181.103 445.585 180.48 445.189 179.679C444.798 178.878 444.602 177.943 444.602 176.872C444.602 175.793 444.798 174.85 445.189 174.045C445.585 173.24 446.134 172.615 446.836 172.169C447.542 171.724 448.363 171.501 449.298 171.501C450.234 171.501 451.053 171.724 451.754 172.169C452.461 172.615 453.009 173.24 453.401 174.045C453.797 174.85 453.994 175.793 453.994 176.872C453.994 177.943 453.797 178.878 453.401 179.679C453.009 180.48 452.461 181.103 451.754 181.548C451.053 181.993 450.234 182.216 449.298 182.216ZM449.298 180.786C450.009 180.786 450.594 180.603 451.053 180.239C451.512 179.875 451.851 179.396 452.072 178.802C452.292 178.208 452.402 177.565 452.402 176.872C452.402 176.179 452.292 175.534 452.072 174.936C451.851 174.337 451.512 173.854 451.053 173.485C450.594 173.116 450.009 172.932 449.298 172.932C448.588 172.932 448.003 173.116 447.544 173.485C447.085 173.854 446.746 174.337 446.525 174.936C446.305 175.534 446.195 176.179 446.195 176.872C446.195 177.565 446.305 178.208 446.525 178.802C446.746 179.396 447.085 179.875 447.544 180.239C448.003 180.603 448.588 180.786 449.298 180.786ZM456.425 182V171.636H460.662C461.778 171.636 462.664 171.888 463.321 172.392C463.977 172.896 464.306 173.562 464.306 174.389C464.306 175.019 464.119 175.507 463.746 175.853C463.372 176.195 462.893 176.427 462.309 176.548C462.691 176.602 463.062 176.737 463.422 176.953C463.786 177.169 464.088 177.466 464.326 177.844C464.564 178.217 464.684 178.676 464.684 179.22C464.684 179.751 464.549 180.225 464.279 180.644C464.009 181.062 463.622 181.393 463.118 181.636C462.615 181.879 462.012 182 461.31 182H456.425ZM457.937 180.543H461.31C461.859 180.543 462.288 180.412 462.599 180.151C462.909 179.89 463.064 179.535 463.064 179.085C463.064 178.55 462.909 178.129 462.599 177.824C462.288 177.513 461.859 177.358 461.31 177.358H457.937V180.543ZM457.937 175.982H460.662C461.09 175.982 461.456 175.923 461.762 175.806C462.068 175.685 462.302 175.514 462.464 175.293C462.63 175.068 462.714 174.803 462.714 174.497C462.714 174.061 462.531 173.719 462.167 173.472C461.803 173.22 461.301 173.094 460.662 173.094H457.937V175.982ZM470.144 182.243C469.487 182.243 468.891 182.119 468.356 181.872C467.821 181.62 467.395 181.258 467.081 180.786C466.766 180.309 466.608 179.733 466.608 179.058C466.608 178.464 466.725 177.983 466.959 177.614C467.193 177.241 467.506 176.949 467.897 176.737C468.288 176.526 468.72 176.368 469.192 176.265C469.669 176.157 470.148 176.071 470.63 176.009C471.259 175.928 471.77 175.867 472.161 175.826C472.557 175.781 472.845 175.707 473.025 175.604C473.209 175.5 473.301 175.32 473.301 175.064V175.01C473.301 174.344 473.119 173.827 472.755 173.458C472.395 173.089 471.849 172.905 471.115 172.905C470.355 172.905 469.759 173.071 469.327 173.404C468.896 173.737 468.592 174.092 468.417 174.47L466.905 173.93C467.175 173.301 467.535 172.81 467.985 172.46C468.439 172.104 468.934 171.857 469.469 171.717C470.009 171.573 470.54 171.501 471.061 171.501C471.394 171.501 471.777 171.542 472.208 171.623C472.645 171.699 473.065 171.859 473.47 172.102C473.879 172.345 474.219 172.711 474.489 173.202C474.759 173.692 474.894 174.349 474.894 175.172V182H473.301V180.597H473.221C473.113 180.821 472.933 181.062 472.681 181.319C472.429 181.575 472.094 181.793 471.675 181.973C471.257 182.153 470.747 182.243 470.144 182.243ZM470.387 180.812C471.016 180.812 471.547 180.689 471.979 180.441C472.415 180.194 472.744 179.875 472.964 179.483C473.189 179.092 473.301 178.68 473.301 178.249V176.791C473.234 176.872 473.086 176.946 472.856 177.014C472.631 177.077 472.37 177.133 472.074 177.183C471.781 177.228 471.496 177.268 471.217 177.304C470.942 177.335 470.72 177.362 470.549 177.385C470.135 177.439 469.748 177.527 469.388 177.648C469.033 177.765 468.745 177.943 468.525 178.181C468.309 178.415 468.201 178.734 468.201 179.139C468.201 179.692 468.405 180.111 468.815 180.394C469.228 180.673 469.752 180.812 470.387 180.812ZM477.8 185.886V171.636H479.339V173.283H479.527C479.644 173.103 479.806 172.873 480.013 172.594C480.225 172.311 480.526 172.059 480.917 171.839C481.313 171.614 481.848 171.501 482.523 171.501C483.396 171.501 484.165 171.72 484.831 172.156C485.496 172.592 486.016 173.211 486.389 174.011C486.763 174.812 486.949 175.757 486.949 176.845C486.949 177.943 486.763 178.894 486.389 179.699C486.016 180.5 485.499 181.121 484.837 181.561C484.176 181.998 483.414 182.216 482.55 182.216C481.884 182.216 481.351 182.106 480.951 181.885C480.551 181.66 480.243 181.406 480.027 181.123C479.811 180.835 479.644 180.597 479.527 180.408H479.392V185.886H477.8ZM479.366 176.818C479.366 177.601 479.48 178.291 479.71 178.89C479.939 179.483 480.274 179.949 480.715 180.286C481.156 180.619 481.696 180.786 482.334 180.786C483 180.786 483.555 180.61 484.001 180.259C484.451 179.904 484.788 179.427 485.013 178.829C485.242 178.226 485.357 177.556 485.357 176.818C485.357 176.089 485.245 175.433 485.02 174.848C484.799 174.259 484.464 173.793 484.014 173.451C483.569 173.105 483.009 172.932 482.334 172.932C481.687 172.932 481.142 173.096 480.701 173.424C480.261 173.748 479.928 174.203 479.703 174.787C479.478 175.368 479.366 176.045 479.366 176.818ZM493.589 182.216C492.653 182.216 491.832 181.993 491.126 181.548C490.424 181.103 489.875 180.48 489.479 179.679C489.088 178.878 488.892 177.943 488.892 176.872C488.892 175.793 489.088 174.85 489.479 174.045C489.875 173.24 490.424 172.615 491.126 172.169C491.832 171.724 492.653 171.501 493.589 171.501C494.524 171.501 495.343 171.724 496.044 172.169C496.751 172.615 497.299 173.24 497.691 174.045C498.087 174.85 498.285 175.793 498.285 176.872C498.285 177.943 498.087 178.878 497.691 179.679C497.299 180.48 496.751 181.103 496.044 181.548C495.343 181.993 494.524 182.216 493.589 182.216ZM493.589 180.786C494.299 180.786 494.884 180.603 495.343 180.239C495.802 179.875 496.141 179.396 496.362 178.802C496.582 178.208 496.692 177.565 496.692 176.872C496.692 176.179 496.582 175.534 496.362 174.936C496.141 174.337 495.802 173.854 495.343 173.485C494.884 173.116 494.299 172.932 493.589 172.932C492.878 172.932 492.293 173.116 491.834 173.485C491.375 173.854 491.036 174.337 490.815 174.936C490.595 175.534 490.485 176.179 490.485 176.872C490.485 177.565 490.595 178.208 490.815 178.802C491.036 179.396 491.375 179.875 491.834 180.239C492.293 180.603 492.878 180.786 493.589 180.786ZM500.715 182V171.636H504.952C506.068 171.636 506.954 171.888 507.611 172.392C508.268 172.896 508.596 173.562 508.596 174.389C508.596 175.019 508.409 175.507 508.036 175.853C507.663 176.195 507.183 176.427 506.599 176.548C506.981 176.602 507.352 176.737 507.712 176.953C508.076 177.169 508.378 177.466 508.616 177.844C508.855 178.217 508.974 178.676 508.974 179.22C508.974 179.751 508.839 180.225 508.569 180.644C508.299 181.062 507.912 181.393 507.408 181.636C506.905 181.879 506.302 182 505.6 182H500.715ZM502.227 180.543H505.6C506.149 180.543 506.578 180.412 506.889 180.151C507.199 179.89 507.354 179.535 507.354 179.085C507.354 178.55 507.199 178.129 506.889 177.824C506.578 177.513 506.149 177.358 505.6 177.358H502.227V180.543ZM502.227 175.982H504.952C505.38 175.982 505.746 175.923 506.052 175.806C506.358 175.685 506.592 175.514 506.754 175.293C506.92 175.068 507.004 174.803 507.004 174.497C507.004 174.061 506.821 173.719 506.457 173.472C506.093 173.22 505.591 173.094 504.952 173.094H502.227V175.982Z" fill="#ADACAA"/>
<path d="M363.574 142.815L364.603 144.727C364.238 145.042 363.829 145.271 363.377 145.413C362.926 145.554 362.395 145.647 361.785 145.69C361.18 145.728 360.462 145.756 359.629 145.772C358.692 145.794 357.927 145.971 357.333 146.303C356.74 146.635 356.285 147.139 355.969 147.814C355.654 148.484 355.447 149.339 355.349 150.379H355.488C355.88 149.611 356.43 149.025 357.137 148.623C357.845 148.22 358.676 148.018 359.629 148.018C360.669 148.018 361.586 148.252 362.381 148.721C363.181 149.183 363.805 149.856 364.251 150.738C364.703 151.62 364.929 152.687 364.929 153.94C364.929 155.23 364.687 156.349 364.202 157.297C363.718 158.239 363.029 158.965 362.136 159.477C361.248 159.989 360.195 160.245 358.975 160.245C357.761 160.245 356.705 159.981 355.806 159.453C354.913 158.919 354.222 158.132 353.732 157.092C353.247 156.047 353.005 154.759 353.005 153.229V152.102C353.005 149.151 353.555 146.948 354.654 145.494C355.754 144.04 357.385 143.3 359.547 143.273C360.189 143.262 360.764 143.259 361.27 143.265C361.782 143.27 362.229 143.246 362.61 143.191C362.991 143.137 363.312 143.011 363.574 142.815ZM358.991 157.876C359.596 157.876 360.119 157.721 360.56 157.411C361.001 157.095 361.338 156.649 361.572 156.071C361.812 155.494 361.932 154.811 361.932 154.021C361.932 153.243 361.812 152.581 361.572 152.037C361.333 151.487 360.993 151.067 360.551 150.779C360.11 150.49 359.585 150.346 358.975 150.346C358.518 150.346 358.107 150.428 357.742 150.591C357.377 150.754 357.067 150.994 356.811 151.31C356.555 151.625 356.359 152.009 356.223 152.461C356.087 152.913 356.013 153.433 356.002 154.021C356.002 155.203 356.269 156.142 356.803 156.839C357.336 157.531 358.066 157.876 358.991 157.876ZM372.917 160.245C371.692 160.245 370.63 159.975 369.732 159.436C368.833 158.897 368.136 158.143 367.641 157.174C367.151 156.205 366.906 155.072 366.906 153.776C366.906 152.48 367.151 151.345 367.641 150.37C368.136 149.396 368.833 148.639 369.732 148.1C370.63 147.561 371.692 147.291 372.917 147.291C374.142 147.291 375.204 147.561 376.103 148.1C377.001 148.639 377.695 149.396 378.185 150.37C378.681 151.345 378.929 152.48 378.929 153.776C378.929 155.072 378.681 156.205 378.185 157.174C377.695 158.143 377.001 158.897 376.103 159.436C375.204 159.975 374.142 160.245 372.917 160.245ZM372.934 157.876C373.598 157.876 374.153 157.694 374.6 157.329C375.046 156.959 375.378 156.463 375.596 155.843C375.819 155.222 375.931 154.53 375.931 153.768C375.931 153 375.819 152.306 375.596 151.685C375.378 151.059 375.046 150.561 374.6 150.191C374.153 149.82 373.598 149.635 372.934 149.635C372.253 149.635 371.687 149.82 371.235 150.191C370.788 150.561 370.453 151.059 370.23 151.685C370.012 152.306 369.903 153 369.903 153.768C369.903 154.53 370.012 155.222 370.23 155.843C370.453 156.463 370.788 156.959 371.235 157.329C371.687 157.694 372.253 157.876 372.934 157.876ZM380.572 160L380.556 157.566H380.989C381.316 157.566 381.591 157.493 381.814 157.346C382.037 157.199 382.222 156.953 382.369 156.61C382.516 156.262 382.631 155.794 382.712 155.206C382.794 154.618 382.851 153.885 382.884 153.009L383.104 147.455H392.252V160H389.393V149.88H385.791L385.595 153.923C385.546 154.969 385.429 155.875 385.244 156.643C385.065 157.405 384.809 158.034 384.476 158.53C384.15 159.025 383.739 159.396 383.243 159.641C382.748 159.88 382.162 160 381.487 160H380.572ZM397.23 151.538H400.93C402.531 151.538 403.77 151.928 404.646 152.706C405.523 153.485 405.964 154.506 405.97 155.769C405.964 156.591 405.763 157.321 405.365 157.958C404.973 158.595 404.401 159.096 403.65 159.461C402.904 159.82 401.997 160 400.93 160H395.229V147.455H398.08V157.574H400.93C401.573 157.574 402.101 157.411 402.515 157.084C402.928 156.752 403.135 156.327 403.135 155.81C403.135 155.266 402.928 154.822 402.515 154.479C402.101 154.136 401.573 153.964 400.93 153.964H397.23V151.538ZM408.504 147.455H411.354V157.566H415.299V147.455H418.15V157.566H422.094V147.455H424.945V160H408.504V147.455ZM431.542 160.253C430.747 160.253 430.031 160.112 429.394 159.828C428.763 159.54 428.262 159.115 427.891 158.554C427.527 157.993 427.344 157.302 427.344 156.48C427.344 155.772 427.475 155.187 427.736 154.724C427.998 154.261 428.354 153.891 428.806 153.613C429.258 153.335 429.767 153.126 430.334 152.984C430.905 152.837 431.496 152.731 432.106 152.665C432.841 152.589 433.437 152.521 433.895 152.461C434.352 152.396 434.684 152.298 434.891 152.167C435.103 152.031 435.21 151.821 435.21 151.538V151.489C435.21 150.874 435.027 150.398 434.662 150.06C434.298 149.722 433.772 149.554 433.086 149.554C432.362 149.554 431.787 149.712 431.363 150.027C430.943 150.343 430.66 150.716 430.513 151.146L427.753 150.754C427.97 149.992 428.33 149.355 428.831 148.843C429.332 148.326 429.944 147.939 430.668 147.683C431.393 147.422 432.193 147.291 433.07 147.291C433.674 147.291 434.276 147.362 434.875 147.504C435.474 147.645 436.021 147.879 436.516 148.206C437.012 148.527 437.409 148.966 437.709 149.521C438.014 150.076 438.166 150.771 438.166 151.604V160H435.324V158.277H435.226C435.046 158.625 434.793 158.952 434.466 159.257C434.145 159.556 433.739 159.799 433.249 159.984C432.765 160.163 432.196 160.253 431.542 160.253ZM432.31 158.081C432.904 158.081 433.418 157.964 433.854 157.729C434.289 157.49 434.624 157.174 434.858 156.782C435.098 156.39 435.218 155.962 435.218 155.5V154.021C435.125 154.098 434.967 154.168 434.744 154.234C434.526 154.299 434.281 154.356 434.009 154.405C433.737 154.454 433.467 154.498 433.2 154.536C432.934 154.574 432.702 154.607 432.506 154.634C432.065 154.694 431.67 154.792 431.322 154.928C430.973 155.064 430.698 155.255 430.497 155.5C430.295 155.739 430.195 156.05 430.195 156.431C430.195 156.975 430.393 157.386 430.791 157.664C431.188 157.942 431.695 158.081 432.31 158.081ZM448.555 160V149.856H445.877C445.196 149.856 444.673 150.014 444.308 150.33C443.944 150.645 443.764 151.037 443.769 151.506C443.764 151.974 443.935 152.361 444.284 152.665C444.632 152.97 445.131 153.123 445.778 153.123H449.487V155.279H445.778C444.777 155.279 443.911 155.121 443.181 154.805C442.452 154.49 441.891 154.043 441.499 153.466C441.107 152.889 440.911 152.214 440.911 151.44C440.911 150.634 441.109 149.935 441.507 149.341C441.91 148.742 442.482 148.279 443.222 147.953C443.968 147.621 444.853 147.455 445.877 147.455H451.324V160H448.555ZM440.453 160L443.957 153.564H446.873L443.361 160H440.453ZM453.436 160L453.419 157.566H453.852C454.179 157.566 454.454 157.493 454.677 157.346C454.9 157.199 455.085 156.953 455.233 156.61C455.38 156.262 455.494 155.794 455.576 155.206C455.657 154.618 455.714 153.885 455.747 153.009L455.968 147.455H465.115V160H462.257V149.88H458.655L458.459 153.923C458.41 154.969 458.293 155.875 458.108 156.643C457.928 157.405 457.672 158.034 457.34 158.53C457.013 159.025 456.602 159.396 456.106 159.641C455.611 159.88 455.026 160 454.35 160H453.436ZM471.703 160.253C470.908 160.253 470.191 160.112 469.554 159.828C468.923 159.54 468.422 159.115 468.052 158.554C467.687 157.993 467.504 157.302 467.504 156.48C467.504 155.772 467.635 155.187 467.896 154.724C468.158 154.261 468.514 153.891 468.966 153.613C469.418 153.335 469.927 153.126 470.494 152.984C471.065 152.837 471.656 152.731 472.266 152.665C473.001 152.589 473.597 152.521 474.055 152.461C474.512 152.396 474.844 152.298 475.051 152.167C475.264 152.031 475.37 151.821 475.37 151.538V151.489C475.37 150.874 475.187 150.398 474.823 150.06C474.458 149.722 473.932 149.554 473.246 149.554C472.522 149.554 471.948 149.712 471.523 150.027C471.104 150.343 470.82 150.716 470.673 151.146L467.913 150.754C468.131 149.992 468.49 149.355 468.991 148.843C469.492 148.326 470.104 147.939 470.829 147.683C471.553 147.422 472.353 147.291 473.23 147.291C473.834 147.291 474.436 147.362 475.035 147.504C475.634 147.645 476.181 147.879 476.677 148.206C477.172 148.527 477.57 148.966 477.869 149.521C478.174 150.076 478.326 150.771 478.326 151.604V160H475.484V158.277H475.386C475.206 158.625 474.953 158.952 474.627 159.257C474.305 159.556 473.9 159.799 473.41 159.984C472.925 160.163 472.356 160.253 471.703 160.253ZM472.47 158.081C473.064 158.081 473.578 157.964 474.014 157.729C474.45 157.49 474.784 157.174 475.019 156.782C475.258 156.39 475.378 155.962 475.378 155.5V154.021C475.285 154.098 475.127 154.168 474.904 154.234C474.686 154.299 474.441 154.356 474.169 154.405C473.897 154.454 473.627 154.498 473.361 154.536C473.094 154.574 472.862 154.607 472.666 154.634C472.225 154.694 471.83 154.792 471.482 154.928C471.133 155.064 470.859 155.255 470.657 155.5C470.456 155.739 470.355 156.05 470.355 156.431C470.355 156.975 470.554 157.386 470.951 157.664C471.349 157.942 471.855 158.081 472.47 158.081ZM481.299 160V147.455H486.568C488.054 147.455 489.227 147.751 490.088 148.345C490.954 148.938 491.386 149.766 491.386 150.828C491.386 151.53 491.141 152.105 490.651 152.551C490.167 152.992 489.505 153.289 488.667 153.441C489.325 153.496 489.903 153.662 490.398 153.94C490.899 154.217 491.291 154.582 491.574 155.034C491.857 155.486 491.999 156.006 491.999 156.594C491.999 157.286 491.817 157.887 491.452 158.399C491.092 158.906 490.567 159.3 489.875 159.583C489.189 159.861 488.356 160 487.376 160H481.299ZM484.068 157.672H487.376C487.921 157.672 488.348 157.544 488.658 157.288C488.969 157.027 489.124 156.673 489.124 156.227C489.124 155.709 488.969 155.304 488.658 155.01C488.348 154.71 487.921 154.56 487.376 154.56H484.068V157.672ZM484.068 152.649H486.625C487.028 152.649 487.373 152.592 487.662 152.478C487.951 152.358 488.171 152.192 488.324 151.979C488.476 151.762 488.552 151.503 488.552 151.203C488.552 150.773 488.375 150.436 488.021 150.191C487.673 149.946 487.188 149.823 486.568 149.823H484.068V152.649ZM494.439 160V147.455H497.396V152.518H498.474L502.247 147.455H505.808L501.161 153.613L505.857 160H502.28L498.841 155.271H497.396V160H494.439ZM511.144 160.253C510.349 160.253 509.633 160.112 508.996 159.828C508.364 159.54 507.863 159.115 507.493 158.554C507.128 157.993 506.946 157.302 506.946 156.48C506.946 155.772 507.076 155.187 507.338 154.724C507.599 154.261 507.956 153.891 508.408 153.613C508.86 153.335 509.369 153.126 509.935 152.984C510.507 152.837 511.098 152.731 511.707 152.665C512.443 152.589 513.039 152.521 513.496 152.461C513.954 152.396 514.286 152.298 514.493 152.167C514.705 152.031 514.811 151.821 514.811 151.538V151.489C514.811 150.874 514.629 150.398 514.264 150.06C513.899 149.722 513.374 149.554 512.688 149.554C511.963 149.554 511.389 149.712 510.964 150.027C510.545 150.343 510.262 150.716 510.115 151.146L507.354 150.754C507.572 149.992 507.931 149.355 508.432 148.843C508.933 148.326 509.546 147.939 510.27 147.683C510.994 147.422 511.795 147.291 512.671 147.291C513.276 147.291 513.877 147.362 514.476 147.504C515.075 147.645 515.622 147.879 516.118 148.206C516.613 148.527 517.011 148.966 517.31 149.521C517.615 150.076 517.768 150.771 517.768 151.604V160H514.926V158.277H514.828C514.648 158.625 514.395 158.952 514.068 159.257C513.747 159.556 513.341 159.799 512.851 159.984C512.366 160.163 511.797 160.253 511.144 160.253ZM511.912 158.081C512.505 158.081 513.02 157.964 513.455 157.729C513.891 157.49 514.226 157.174 514.46 156.782C514.7 156.39 514.819 155.962 514.819 155.5V154.021C514.727 154.098 514.569 154.168 514.346 154.234C514.128 154.299 513.883 154.356 513.611 154.405C513.338 154.454 513.069 154.498 512.802 154.536C512.535 154.574 512.304 154.607 512.108 154.634C511.667 154.694 511.272 154.792 510.923 154.928C510.575 155.064 510.3 155.255 510.098 155.5C509.897 155.739 509.796 156.05 509.796 156.431C509.796 156.975 509.995 157.386 510.392 157.664C510.79 157.942 511.296 158.081 511.912 158.081Z" fill="#A3A29F"/>
<path d="M106.281 92L101.781 85.9915H100.17V92H98.5852V78.9091H100.17V84.5852H100.861L106.102 78.9091H107.994L102.702 84.6619L108.173 92H106.281ZM110.017 95.6818V82.1818H111.475V83.7415H111.654C111.765 83.571 111.918 83.3537 112.114 83.0895C112.314 82.821 112.6 82.5824 112.971 82.3736C113.346 82.1605 113.853 82.054 114.492 82.054C115.319 82.054 116.047 82.2607 116.678 82.674C117.309 83.0874 117.801 83.6733 118.154 84.4318C118.508 85.1903 118.685 86.0852 118.685 87.1165C118.685 88.1562 118.508 89.0575 118.154 89.8203C117.801 90.5788 117.311 91.1669 116.684 91.5845C116.058 91.9979 115.336 92.2045 114.517 92.2045C113.887 92.2045 113.382 92.1001 113.002 91.8913C112.623 91.6783 112.331 91.4375 112.127 91.169C111.922 90.8963 111.765 90.6705 111.654 90.4915H111.526V95.6818H110.017ZM111.5 87.0909C111.5 87.8324 111.609 88.4865 111.826 89.0533C112.044 89.6158 112.361 90.0568 112.779 90.3764C113.196 90.6918 113.708 90.8494 114.313 90.8494C114.944 90.8494 115.47 90.6832 115.892 90.3509C116.318 90.0142 116.637 89.5625 116.85 88.9957C117.068 88.4247 117.176 87.7898 117.176 87.0909C117.176 86.4006 117.07 85.7784 116.857 85.2244C116.648 84.6662 116.331 84.2251 115.904 83.9013C115.483 83.5732 114.952 83.4091 114.313 83.4091C113.699 83.4091 113.184 83.5646 112.766 83.8757C112.348 84.1825 112.033 84.6129 111.82 85.1669C111.607 85.7166 111.5 86.358 111.5 87.0909ZM121.606 95.6818C121.35 95.6818 121.123 95.6605 120.922 95.6179C120.722 95.5795 120.583 95.5412 120.507 95.5028L120.89 94.1733C121.257 94.267 121.581 94.3011 121.862 94.2756C122.143 94.25 122.392 94.1243 122.61 93.8984C122.831 93.6768 123.034 93.3168 123.217 92.8182L123.498 92.0511L119.868 82.1818H121.504L124.214 90.0057H124.316L127.027 82.1818H128.663L124.495 93.4318C124.308 93.9389 124.076 94.3587 123.799 94.6911C123.522 95.0277 123.2 95.277 122.833 95.4389C122.471 95.6009 122.062 95.6818 121.606 95.6818ZM136.714 82.1818V83.5881H132.163V92H130.654V82.1818H136.714ZM137.22 92V90.5938H137.578C137.872 90.5938 138.117 90.5362 138.313 90.4212C138.509 90.3018 138.667 90.0952 138.786 89.8011C138.91 89.5028 139.004 89.0895 139.068 88.5611C139.136 88.0284 139.185 87.3509 139.215 86.5284L139.394 82.1818H145.939V92H144.431V83.5881H140.825L140.672 87.0909C140.638 87.8963 140.566 88.6058 140.455 89.2195C140.348 89.8288 140.184 90.3402 139.963 90.7536C139.745 91.1669 139.455 91.478 139.093 91.6868C138.731 91.8956 138.277 92 137.732 92H137.22ZM152.695 92.2045C151.809 92.2045 151.031 91.9936 150.362 91.5717C149.698 91.1499 149.178 90.5597 148.803 89.8011C148.432 89.0426 148.247 88.1562 148.247 87.142C148.247 86.1193 148.432 85.2266 148.803 84.4638C149.178 83.701 149.698 83.1087 150.362 82.6868C151.031 82.2649 151.809 82.054 152.695 82.054C153.582 82.054 154.357 82.2649 155.022 82.6868C155.691 83.1087 156.211 83.701 156.582 84.4638C156.957 85.2266 157.144 86.1193 157.144 87.142C157.144 88.1562 156.957 89.0426 156.582 89.8011C156.211 90.5597 155.691 91.1499 155.022 91.5717C154.357 91.9936 153.582 92.2045 152.695 92.2045ZM152.695 90.8494C153.369 90.8494 153.923 90.6768 154.357 90.3317C154.792 89.9865 155.114 89.5327 155.323 88.9702C155.531 88.4077 155.636 87.7983 155.636 87.142C155.636 86.4858 155.531 85.8743 155.323 85.3075C155.114 84.7408 154.792 84.2827 154.357 83.9332C153.923 83.5838 153.369 83.4091 152.695 83.4091C152.022 83.4091 151.468 83.5838 151.034 83.9332C150.599 84.2827 150.277 84.7408 150.068 85.3075C149.86 85.8743 149.755 86.4858 149.755 87.142C149.755 87.7983 149.86 88.4077 150.068 88.9702C150.277 89.5327 150.599 89.9865 151.034 90.3317C151.468 90.6768 152.022 90.8494 152.695 90.8494ZM163.436 92.2045C162.515 92.2045 161.723 91.9872 161.058 91.5526C160.393 91.1179 159.882 90.5192 159.524 89.7564C159.166 88.9936 158.987 88.1222 158.987 87.142C158.987 86.1449 159.17 85.2649 159.537 84.5021C159.907 83.7351 160.423 83.1364 161.083 82.706C161.748 82.2713 162.524 82.054 163.41 82.054C164.1 82.054 164.723 82.1818 165.277 82.4375C165.831 82.6932 166.284 83.0511 166.638 83.5114C166.992 83.9716 167.211 84.5085 167.297 85.1222H165.788C165.673 84.6747 165.417 84.2784 165.021 83.9332C164.629 83.5838 164.1 83.4091 163.436 83.4091C162.848 83.4091 162.332 83.5625 161.889 83.8693C161.45 84.1719 161.107 84.6001 160.86 85.1541C160.617 85.7038 160.495 86.3494 160.495 87.0909C160.495 87.8494 160.615 88.5099 160.853 89.0724C161.096 89.6349 161.437 90.0717 161.876 90.3828C162.319 90.6939 162.839 90.8494 163.436 90.8494C163.828 90.8494 164.184 90.7812 164.503 90.6449C164.823 90.5085 165.093 90.3125 165.315 90.0568C165.537 89.8011 165.694 89.4943 165.788 89.1364H167.297C167.211 89.7159 167 90.2379 166.664 90.7024C166.331 91.1626 165.89 91.5291 165.341 91.8018C164.795 92.0703 164.16 92.2045 163.436 92.2045ZM170.473 95.6818C170.218 95.6818 169.99 95.6605 169.789 95.6179C169.589 95.5795 169.451 95.5412 169.374 95.5028L169.757 94.1733C170.124 94.267 170.448 94.3011 170.729 94.2756C171.01 94.25 171.26 94.1243 171.477 93.8984C171.699 93.6768 171.901 93.3168 172.084 92.8182L172.365 92.0511L168.735 82.1818H170.371L173.081 90.0057H173.184L175.894 82.1818H177.53L173.363 93.4318C173.175 93.9389 172.943 94.3587 172.666 94.6911C172.389 95.0277 172.067 95.277 171.701 95.4389C171.338 95.6009 170.929 95.6818 170.473 95.6818ZM178.959 83.5881V82.1818H186.936V83.5881H183.714V92H182.206V83.5881H178.959ZM192.615 92.2045C191.729 92.2045 190.951 91.9936 190.282 91.5717C189.618 91.1499 189.098 90.5597 188.723 89.8011C188.352 89.0426 188.167 88.1562 188.167 87.142C188.167 86.1193 188.352 85.2266 188.723 84.4638C189.098 83.701 189.618 83.1087 190.282 82.6868C190.951 82.2649 191.729 82.054 192.615 82.054C193.502 82.054 194.277 82.2649 194.942 82.6868C195.611 83.1087 196.131 83.701 196.502 84.4638C196.877 85.2266 197.064 86.1193 197.064 87.142C197.064 88.1562 196.877 89.0426 196.502 89.8011C196.131 90.5597 195.611 91.1499 194.942 91.5717C194.277 91.9936 193.502 92.2045 192.615 92.2045ZM192.615 90.8494C193.289 90.8494 193.843 90.6768 194.277 90.3317C194.712 89.9865 195.034 89.5327 195.243 88.9702C195.451 88.4077 195.556 87.7983 195.556 87.142C195.556 86.4858 195.451 85.8743 195.243 85.3075C195.034 84.7408 194.712 84.2827 194.277 83.9332C193.843 83.5838 193.289 83.4091 192.615 83.4091C191.942 83.4091 191.388 83.5838 190.953 83.9332C190.519 84.2827 190.197 84.7408 189.988 85.3075C189.779 85.8743 189.675 86.4858 189.675 87.142C189.675 87.7983 189.779 88.4077 189.988 88.9702C190.197 89.5327 190.519 89.9865 190.953 90.3317C191.388 90.6768 191.942 90.8494 192.615 90.8494ZM206.935 82.1818V92H205.427V82.1818H206.935ZM206.347 86.8608V88.267C206.006 88.3949 205.667 88.5078 205.331 88.6058C204.994 88.6996 204.64 88.7741 204.27 88.8295C203.899 88.8807 203.492 88.9062 203.049 88.9062C201.937 88.9062 201.044 88.6058 200.371 88.005C199.702 87.4041 199.367 86.5028 199.367 85.3011V82.1562H200.876V85.3011C200.876 85.804 200.971 86.2173 201.163 86.5412C201.355 86.8651 201.615 87.1058 201.943 87.2635C202.271 87.4212 202.64 87.5 203.049 87.5C203.688 87.5 204.265 87.4425 204.781 87.3274C205.301 87.2081 205.823 87.0526 206.347 86.8608ZM216.274 86.4006V87.8068H210.854V86.4006H216.274ZM211.211 82.1818V92H209.703V82.1818H211.211ZM217.425 82.1818V92H215.916V82.1818H217.425ZM224.168 92.2045C223.282 92.2045 222.504 91.9936 221.835 91.5717C221.17 91.1499 220.65 90.5597 220.275 89.8011C219.905 89.0426 219.719 88.1562 219.719 87.142C219.719 86.1193 219.905 85.2266 220.275 84.4638C220.65 83.701 221.17 83.1087 221.835 82.6868C222.504 82.2649 223.282 82.054 224.168 82.054C225.055 82.054 225.83 82.2649 226.495 82.6868C227.164 83.1087 227.684 83.701 228.055 84.4638C228.43 85.2266 228.617 86.1193 228.617 87.142C228.617 88.1562 228.43 89.0426 228.055 89.8011C227.684 90.5597 227.164 91.1499 226.495 91.5717C225.83 91.9936 225.055 92.2045 224.168 92.2045ZM224.168 90.8494C224.841 90.8494 225.395 90.6768 225.83 90.3317C226.265 89.9865 226.586 89.5327 226.795 88.9702C227.004 88.4077 227.108 87.7983 227.108 87.142C227.108 86.4858 227.004 85.8743 226.795 85.3075C226.586 84.7408 226.265 84.2827 225.83 83.9332C225.395 83.5838 224.841 83.4091 224.168 83.4091C223.495 83.4091 222.941 83.5838 222.506 83.9332C222.072 84.2827 221.75 84.7408 221.541 85.3075C221.332 85.8743 221.228 86.4858 221.228 87.142C221.228 87.7983 221.332 88.4077 221.541 88.9702C221.75 89.5327 222.072 89.9865 222.506 90.3317C222.941 90.6768 223.495 90.8494 224.168 90.8494Z" fill="#AEADAB"/>
<rect x="268" y="52" width="9" height="15" fill="url(#pattern1_1977_2)"/>
<path d="M98.8906 67.2187V65.0938H99.8516C100.253 65.0938 100.583 65.026 100.844 64.8906C101.109 64.7552 101.326 64.5729 101.492 64.3437C101.664 64.1094 101.807 63.8542 101.922 63.5781L102.148 63.0078L96.5234 51H99.0859L103.281 60.25L107.016 51H109.547L104.016 64.2266C103.781 64.7578 103.51 65.25 103.203 65.7031C102.901 66.1562 102.497 66.5234 101.992 66.8047C101.487 67.0807 100.818 67.2187 99.9844 67.2187H98.8906ZM110.762 67V55H113.098V60.0312H114.223L118.184 55H121.074L116.426 60.8359L121.129 67H118.23L114.613 62.2031H113.098V67H110.762ZM126.436 67.2656C125.675 67.2656 124.988 67.125 124.373 66.8437C123.758 66.5573 123.271 66.1432 122.912 65.6016C122.558 65.0599 122.381 64.3958 122.381 63.6094C122.381 62.9323 122.511 62.375 122.771 61.9375C123.032 61.5 123.383 61.1536 123.826 60.8984C124.269 60.6432 124.764 60.4505 125.311 60.3203C125.857 60.1901 126.415 60.0911 126.982 60.0234C127.701 59.9401 128.285 59.8724 128.732 59.8203C129.18 59.763 129.506 59.6719 129.709 59.5469C129.912 59.4219 130.014 59.2187 130.014 58.9375V58.8828C130.014 58.2005 129.821 57.6719 129.436 57.2969C129.055 56.9219 128.488 56.7344 127.732 56.7344C126.946 56.7344 126.326 56.9089 125.873 57.2578C125.425 57.6016 125.115 57.9844 124.943 58.4062L122.748 57.9062C123.008 57.1771 123.389 56.5885 123.889 56.1406C124.394 55.6875 124.975 55.3594 125.631 55.1562C126.287 54.9479 126.977 54.8438 127.701 54.8438C128.18 54.8438 128.688 54.901 129.225 55.0156C129.766 55.125 130.271 55.3281 130.74 55.625C131.214 55.9219 131.602 56.3464 131.904 56.8984C132.206 57.4453 132.357 58.1563 132.357 59.0313V67H130.076V65.3594H129.982C129.831 65.6615 129.605 65.9583 129.303 66.25C129.001 66.5417 128.613 66.7839 128.139 66.9766C127.665 67.1693 127.097 67.2656 126.436 67.2656ZM126.943 65.3906C127.589 65.3906 128.141 65.263 128.6 65.0078C129.063 64.7526 129.415 64.4193 129.654 64.0078C129.899 63.5911 130.021 63.1458 130.021 62.6719V61.125C129.938 61.2083 129.777 61.2865 129.537 61.3594C129.303 61.4271 129.035 61.487 128.732 61.5391C128.43 61.5859 128.136 61.6302 127.85 61.6719C127.563 61.7083 127.324 61.7396 127.131 61.7656C126.678 61.8229 126.264 61.9193 125.889 62.0547C125.519 62.1901 125.222 62.3854 124.998 62.6406C124.779 62.8906 124.67 63.224 124.67 63.6406C124.67 64.2187 124.883 64.6562 125.311 64.9531C125.738 65.2448 126.282 65.3906 126.943 65.3906ZM134.703 67L139.352 60.8594L134.758 55H137.477L141.188 59.9844H142.023V55H144.359V59.9844H145.172L148.883 55H151.602L147.031 60.8594L151.656 67H148.883L145.141 62H144.359V67H142.023V62H141.242L137.477 67H134.703ZM156.32 63.7266L161.609 55H164.125V67H161.836V58.2656L156.57 67H154.031V55H156.32V63.7266ZM165.777 57.0156V55H175.902V57.0156H171.988V67H169.707V57.0156H165.777ZM182.986 67.2422C181.804 67.2422 180.786 66.9896 179.932 66.4844C179.083 65.974 178.426 65.2578 177.963 64.3359C177.505 63.4089 177.275 62.3229 177.275 61.0781C177.275 59.849 177.505 58.7656 177.963 57.8281C178.426 56.8906 179.072 56.1589 179.9 55.6328C180.734 55.1068 181.708 54.8438 182.822 54.8438C183.499 54.8438 184.156 54.9557 184.791 55.1797C185.426 55.4036 185.997 55.7552 186.502 56.2344C187.007 56.7135 187.406 57.3359 187.697 58.1016C187.989 58.862 188.135 59.7865 188.135 60.875V61.7031H178.596V59.9531H185.846C185.846 59.3385 185.721 58.7943 185.471 58.3203C185.221 57.8411 184.869 57.4635 184.416 57.1875C183.968 56.9115 183.442 56.7734 182.838 56.7734C182.182 56.7734 181.609 56.9349 181.119 57.2578C180.635 57.5755 180.26 57.9922 179.994 58.5078C179.734 59.0182 179.604 59.5729 179.604 60.1719V61.5391C179.604 62.3411 179.744 63.0234 180.025 63.5859C180.312 64.1484 180.71 64.5781 181.221 64.875C181.731 65.1667 182.327 65.3125 183.01 65.3125C183.452 65.3125 183.856 65.25 184.221 65.125C184.585 64.9948 184.9 64.8021 185.166 64.5469C185.432 64.2917 185.635 63.9766 185.775 63.6016L187.986 64C187.809 64.651 187.492 65.2214 187.033 65.7109C186.58 66.1953 186.01 66.5729 185.322 66.8437C184.64 67.1094 183.861 67.2422 182.986 67.2422ZM200.041 67.2656C199.281 67.2656 198.593 67.125 197.979 66.8437C197.364 66.5573 196.877 66.1432 196.518 65.6016C196.163 65.0599 195.986 64.3958 195.986 63.6094C195.986 62.9323 196.117 62.375 196.377 61.9375C196.637 61.5 196.989 61.1536 197.432 60.8984C197.874 60.6432 198.369 60.4505 198.916 60.3203C199.463 60.1901 200.02 60.0911 200.588 60.0234C201.307 59.9401 201.89 59.8724 202.338 59.8203C202.786 59.763 203.111 59.6719 203.314 59.5469C203.518 59.4219 203.619 59.2187 203.619 58.9375V58.8828C203.619 58.2005 203.426 57.6719 203.041 57.2969C202.661 56.9219 202.093 56.7344 201.338 56.7344C200.551 56.7344 199.932 56.9089 199.479 57.2578C199.031 57.6016 198.721 57.9844 198.549 58.4062L196.354 57.9062C196.614 57.1771 196.994 56.5885 197.494 56.1406C197.999 55.6875 198.58 55.3594 199.236 55.1562C199.893 54.9479 200.583 54.8438 201.307 54.8438C201.786 54.8438 202.294 54.901 202.83 55.0156C203.372 55.125 203.877 55.3281 204.346 55.625C204.82 55.9219 205.208 56.3464 205.51 56.8984C205.812 57.4453 205.963 58.1563 205.963 59.0313V67H203.682V65.3594H203.588C203.437 65.6615 203.21 65.9583 202.908 66.25C202.606 66.5417 202.218 66.7839 201.744 66.9766C201.27 67.1693 200.702 67.2656 200.041 67.2656ZM200.549 65.3906C201.195 65.3906 201.747 65.263 202.205 65.0078C202.669 64.7526 203.02 64.4193 203.26 64.0078C203.505 63.5911 203.627 63.1458 203.627 62.6719V61.125C203.544 61.2083 203.382 61.2865 203.143 61.3594C202.908 61.4271 202.64 61.487 202.338 61.5391C202.036 61.5859 201.742 61.6302 201.455 61.6719C201.169 61.7083 200.929 61.7396 200.736 61.7656C200.283 61.8229 199.869 61.9193 199.494 62.0547C199.124 62.1901 198.827 62.3854 198.604 62.6406C198.385 62.8906 198.275 63.224 198.275 63.6406C198.275 64.2187 198.489 64.6562 198.916 64.9531C199.343 65.2448 199.887 65.3906 200.549 65.3906ZM207.902 70.4609V64.9766H208.879C209.129 64.7474 209.34 64.474 209.512 64.1562C209.689 63.8385 209.837 63.4609 209.957 63.0234C210.082 62.5859 210.186 62.0755 210.27 61.4922C210.353 60.9036 210.426 60.2318 210.488 59.4766L210.863 55H219.02V64.9766H220.863V70.4609H218.582V67H210.215V70.4609H207.902ZM211.379 64.9766H216.738V57H212.957L212.707 59.4766C212.587 60.737 212.436 61.8307 212.254 62.7578C212.072 63.6797 211.78 64.4193 211.379 64.9766ZM223.146 71.5V55H225.428V56.9453H225.623C225.758 56.6953 225.954 56.4062 226.209 56.0781C226.464 55.75 226.818 55.4635 227.271 55.2187C227.725 54.9688 228.324 54.8438 229.068 54.8438C230.037 54.8438 230.902 55.0885 231.662 55.5781C232.423 56.0677 233.019 56.7734 233.451 57.6953C233.889 58.6172 234.107 59.7266 234.107 61.0234C234.107 62.3203 233.891 63.4323 233.459 64.3594C233.027 65.2812 232.433 65.9922 231.678 66.4922C230.923 66.987 230.061 67.2344 229.092 67.2344C228.363 67.2344 227.766 67.112 227.303 66.8672C226.844 66.6224 226.485 66.3359 226.225 66.0078C225.964 65.6797 225.764 65.388 225.623 65.1328H225.482V71.5H223.146ZM225.436 61C225.436 61.8437 225.558 62.5833 225.803 63.2188C226.048 63.8542 226.402 64.3516 226.865 64.7109C227.329 65.0651 227.896 65.2422 228.568 65.2422C229.266 65.2422 229.85 65.0573 230.318 64.6875C230.787 64.3125 231.141 63.8047 231.381 63.1641C231.626 62.5234 231.748 61.8021 231.748 61C231.748 60.2083 231.628 59.4974 231.389 58.8672C231.154 58.237 230.8 57.7396 230.326 57.375C229.857 57.0104 229.271 56.8281 228.568 56.8281C227.891 56.8281 227.318 57.0026 226.85 57.3516C226.386 57.7005 226.035 58.1875 225.795 58.8125C225.555 59.4375 225.436 60.1667 225.436 61ZM241.896 67.2422C240.714 67.2422 239.696 66.9896 238.842 66.4844C237.993 65.974 237.337 65.2578 236.873 64.3359C236.415 63.4089 236.186 62.3229 236.186 61.0781C236.186 59.849 236.415 58.7656 236.873 57.8281C237.337 56.8906 237.982 56.1589 238.811 55.6328C239.644 55.1068 240.618 54.8438 241.732 54.8438C242.41 54.8438 243.066 54.9557 243.701 55.1797C244.337 55.4036 244.907 55.7552 245.412 56.2344C245.917 56.7135 246.316 57.3359 246.607 58.1016C246.899 58.862 247.045 59.7865 247.045 60.875V61.7031H237.506V59.9531H244.756C244.756 59.3385 244.631 58.7943 244.381 58.3203C244.131 57.8411 243.779 57.4635 243.326 57.1875C242.878 56.9115 242.352 56.7734 241.748 56.7734C241.092 56.7734 240.519 56.9349 240.029 57.2578C239.545 57.5755 239.17 57.9922 238.904 58.5078C238.644 59.0182 238.514 59.5729 238.514 60.1719V61.5391C238.514 62.3411 238.654 63.0234 238.936 63.5859C239.222 64.1484 239.62 64.5781 240.131 64.875C240.641 65.1667 241.238 65.3125 241.92 65.3125C242.363 65.3125 242.766 65.25 243.131 65.125C243.495 64.9948 243.811 64.8021 244.076 64.5469C244.342 64.2917 244.545 63.9766 244.686 63.6016L246.896 64C246.719 64.651 246.402 65.2214 245.943 65.7109C245.49 66.1953 244.92 66.5729 244.232 66.8437C243.55 67.1094 242.771 67.2422 241.896 67.2422ZM254.691 67.2422C253.53 67.2422 252.53 66.9792 251.691 66.4531C250.858 65.9219 250.217 65.1901 249.77 64.2578C249.322 63.3255 249.098 62.2578 249.098 61.0547C249.098 59.8359 249.327 58.7604 249.785 57.8281C250.243 56.8906 250.889 56.1589 251.723 55.6328C252.556 55.1068 253.538 54.8438 254.668 54.8438C255.579 54.8438 256.392 55.013 257.105 55.3516C257.819 55.6849 258.395 56.1536 258.832 56.7578C259.275 57.362 259.538 58.0677 259.621 58.875H257.348C257.223 58.3125 256.936 57.8281 256.488 57.4219C256.046 57.0156 255.452 56.8125 254.707 56.8125C254.056 56.8125 253.486 56.9844 252.996 57.3281C252.512 57.6667 252.134 58.151 251.863 58.7812C251.592 59.4062 251.457 60.1458 251.457 61C251.457 61.875 251.59 62.6302 251.855 63.2656C252.121 63.901 252.496 64.3932 252.98 64.7422C253.47 65.0911 254.046 65.2656 254.707 65.2656C255.15 65.2656 255.551 65.1849 255.91 65.0234C256.275 64.8568 256.579 64.6198 256.824 64.3125C257.074 64.0052 257.249 63.6354 257.348 63.2031H259.621C259.538 63.9792 259.285 64.6719 258.863 65.2812C258.441 65.8906 257.876 66.3698 257.168 66.7187C256.465 67.0677 255.639 67.2422 254.691 67.2422Z" fill="#494848"/>
<rect x="24" y="39" width="60" height="61" fill="url(#pattern2_1977_2)"/>
<rect x="21" y="37" width="66" height="66" rx="33" fill="url(#pattern3_1977_2)"/>
</g>
<defs>




<clipPath id="clip0_1977_2">
<rect width="603" height="209" fill="white"/>
</clipPath>




</defs>
</svg>